<?xml version="1.0" encoding="UTF-8" standalone="no"?>
<!-- Generator: Adobe Illustrator 21.1.0, SVG Export Plug-In . SVG Version: 6.00 Build 0)  -->

<svg
   xmlns:dc="http://purl.org/dc/elements/1.1/"
   xmlns:cc="http://creativecommons.org/ns#"
   xmlns:rdf="http://www.w3.org/1999/02/22-rdf-syntax-ns#"
   xmlns:svg="http://www.w3.org/2000/svg"
   xmlns="http://www.w3.org/2000/svg"
   xmlns:sodipodi="http://sodipodi.sourceforge.net/DTD/sodipodi-0.dtd"
   xmlns:inkscape="http://www.inkscape.org/namespaces/inkscape"
   version="1.1"
   id="weather-icon-rain"
   x="0px"
   y="0px"
   viewBox="0 0 64 64"
   style="enable-background:new 0 0 64 64;"
   xml:space="preserve"
   sodipodi:docname="rainsnow.svg"
   inkscape:version="0.92.3 (2405546, 2018-03-11)"><metadata
   id="metadata13"><rdf:RDF><cc:Work
       rdf:about=""><dc:format>image/svg+xml</dc:format><dc:type
         rdf:resource="http://purl.org/dc/dcmitype/StillImage" /><dc:title></dc:title></cc:Work></rdf:RDF></metadata><defs
   id="defs11" /><sodipodi:namedview
   pagecolor="#000000"
   bordercolor="#666666"
   borderopacity="1"
   objecttolerance="10"
   gridtolerance="10"
   guidetolerance="10"
   inkscape:pageopacity="0"
   inkscape:pageshadow="2"
   inkscape:window-width="1613"
   inkscape:window-height="1022"
   id="namedview9"
   showgrid="false"
   inkscape:zoom="3.6875"
   inkscape:cx="32"
   inkscape:cy="32"
   inkscape:window-x="67"
   inkscape:window-y="0"
   inkscape:window-maximized="1"
   inkscape:current-layer="weather-icon-rain" />
<style
   type="text/css"
   id="style2">
	.st0{fill:#FFFFFF;}
</style>
<path
   class="st0"
   d="M25.5,59.3c-0.2,0-0.3,0-0.5-0.1c-0.7-0.3-1-1.1-0.7-1.7l9.3-21.9c0.3-0.7,1.1-1,1.7-0.7c0.7,0.3,1,1.1,0.7,1.7  l-9.3,21.9C26.5,59,26,59.3,25.5,59.3z M34,53.5c-0.2,0-0.3,0-0.5-0.1c-0.7-0.3-1-1.1-0.7-1.7l6.6-16c0.3-0.7,1.1-1,1.7-0.7  c0.7,0.3,1,1.1,0.7,1.7l-6.6,16C35,53.2,34.5,53.5,34,53.5z M21.9,53.5c-0.2,0-0.3,0-0.5-0.1c-0.7-0.3-1-1.1-0.7-1.7l6.6-16  c0.3-0.7,1.1-1,1.7-0.7c0.7,0.3,1,1.1,0.7,1.7l-6.6,16C22.9,53.2,22.5,53.5,21.9,53.5z"
   id="path4" />
<path
   class="st0"
   d="M50.9,22.4c0.1-0.8,0.2-1.6,0.2-2.4c0-7.4-6-13.4-13.4-13.4c-4.5,0-8.7,2.3-11.2,6c-1.2-0.5-2.4-0.8-3.7-0.8  c-5.1,0-9.3,4.2-9.3,9.3v0.3c-4.1,1.4-7,5.2-7,9.7c0,5.6,4.6,10.2,10.2,10.2h5c1.6,0,1.5-2.7,0-2.7h-5c-4.2,0-7.5-3.4-7.5-7.5  c0-3.6,2.5-6.7,6.1-7.4l1.3-0.3l-0.2-1.3c-0.1-0.4-0.1-0.7-0.1-1.1c0-3.6,3-6.6,6.6-6.6c1.2,0,2.4,0.3,3.5,1l1.2,0.7l0.7-1.3  c1.9-3.5,5.5-5.7,9.5-5.7c5.9,0,10.7,4.8,10.7,10.7c0,1.1-0.2,2.2-0.5,3.3L47.4,25l2.1-0.1h0.3c3.8,0,6.8,3.1,6.8,6.8  c0,3.8-3.1,6.8-6.8,6.8h-5.7c-1.7,0-2,2.7,0,2.7h5.7c5.2,0,9.5-4.3,9.5-9.5C59.2,27,55.6,23,50.9,22.4z"
   id="path6" />
<style
   id="style820"
   type="text/css">
	.st0{fill:#FFFFFF;}
</style><path
   d="m 56.421812,51.318837 h -2.27256 l 0.961469,-0.961467 c 0.174807,-0.174813 0.174807,-0.437031 0,-0.611843 -0.174816,-0.174812 -0.437038,-0.174812 -0.611846,0 l -1.573314,1.57331 h -3.627353 l 2.578484,-2.578481 h 2.228852 c 0.218516,0 0.437031,-0.174812 0.437031,-0.43703 0,-0.218516 -0.174808,-0.437032 -0.437031,-0.437032 h -1.354791 l 1.617014,-1.617013 c 0.174808,-0.174812 0.174808,-0.437031 0,-0.611843 -0.174815,-0.174812 -0.43703,-0.174812 -0.611845,0 l -1.617015,1.617014 v -1.354796 c 0,-0.218515 -0.174815,-0.43703 -0.43703,-0.43703 -0.218515,0 -0.437031,0.174812 -0.437031,0.43703 v 2.228857 l -2.578481,2.578481 v -3.627355 l 1.573311,-1.57331 c 0.174812,-0.174812 0.174812,-0.437031 0,-0.611843 -0.174813,-0.174813 -0.437031,-0.174813 -0.611843,0 l -0.961468,0.961467 v -2.272559 c 0,-0.218515 -0.174812,-0.437031 -0.43703,-0.437031 -0.218516,0 -0.437031,0.174813 -0.437031,0.437031 v 2.272559 l -0.961468,-0.961467 c -0.174812,-0.174813 -0.43703,-0.174813 -0.611842,0 -0.174813,0.174812 -0.174813,0.437031 0,0.611843 l 1.57331,1.57331 v 3.627355 l -2.578481,-2.578481 v -2.228857 c 0,-0.218515 -0.174812,-0.43703 -0.437031,-0.43703 -0.218515,0 -0.43703,0.174812 -0.43703,0.43703 v 1.354796 l -1.617014,-1.617014 c -0.174812,-0.174812 -0.437031,-0.174812 -0.611843,0 -0.174812,0.174812 -0.174812,0.437031 0,0.611843 l 1.617013,1.617013 h -1.354795 c -0.218515,0 -0.43703,0.174813 -0.43703,0.437032 0,0.218515 0.174812,0.43703 0.43703,0.43703 h 2.228857 l 2.578481,2.578481 h -3.627355 l -1.57331,-1.57331 c -0.174812,-0.174812 -0.437031,-0.174812 -0.611843,0 -0.174812,0.174812 -0.174812,0.43703 0,0.611843 l 0.961467,0.961467 h -2.272559 c -0.218515,0 -0.437031,0.174813 -0.437031,0.437031 0,0.218515 0.174813,0.43703 0.437031,0.43703 h 2.272559 l -0.961467,0.961468 c -0.174812,0.174812 -0.174812,0.437031 0,0.611843 0.08741,0.08741 0.174812,0.131109 0.305921,0.131109 0.08741,0 0.218516,-0.0437 0.305922,-0.131109 l 1.57331,-1.573311 h 3.627355 L 44.62198,54.77138 h -2.228857 c -0.218515,0 -0.43703,0.174812 -0.43703,0.43703 0,0.218515 0.174812,0.437031 0.43703,0.437031 h 1.354795 l -1.57331,1.529607 c -0.174812,0.174813 -0.174812,0.437031 0,0.611843 0.08741,0.08741 0.174812,0.13111 0.305921,0.13111 0.08741,0 0.218516,-0.0437 0.305922,-0.13111 l 1.617014,-1.617013 v 1.354795 c 0,0.218515 0.174812,0.437031 0.43703,0.437031 0.218516,0 0.437031,-0.174813 0.437031,-0.437031 v -2.228857 l 2.578481,-2.57848 v 3.627354 l -1.57331,1.573311 c -0.174812,0.174812 -0.174812,0.43703 0,0.611842 0.08741,0.08741 0.174812,0.131109 0.305921,0.131109 0.131109,0 0.218515,-0.0437 0.305921,-0.131109 l 0.961468,-0.961467 v 2.272559 c 0,0.218516 0.174812,0.437031 0.437031,0.437031 0.218515,0 0.43703,-0.174812 0.43703,-0.437031 v -2.272559 l 0.961468,0.961467 c 0.08741,0.08741 0.174812,0.131109 0.305921,0.131109 0.131109,0 0.218515,-0.0437 0.305922,-0.131109 0.174813,-0.174812 0.174813,-0.43703 0,-0.611842 L 48.730068,56.34469 v -3.627354 l 2.578478,2.57848 v 2.228857 c 0,0.218515 0.174816,0.437031 0.437031,0.437031 0.218515,0 0.43703,-0.174813 0.43703,-0.437031 v -1.354795 l 1.617015,1.617013 c 0.08741,0.08741 0.174815,0.13111 0.305922,0.13111 0.131108,0 0.218516,-0.0437 0.305923,-0.13111 0.174816,-0.174812 0.174816,-0.43703 0,-0.611843 l -1.617014,-1.617014 h 1.354799 c 0.218515,0 0.437031,-0.174812 0.437031,-0.43703 0,-0.218515 -0.174816,-0.437031 -0.437031,-0.437031 h -2.22886 l -2.57848,-2.578481 h 3.627356 l 1.573307,1.573311 c 0.08741,0.08741 0.174815,0.131109 0.305923,0.131109 0.131107,0 0.218515,-0.0437 0.305923,-0.131109 0.174815,-0.174813 0.174815,-0.437031 0,-0.611843 l -0.961469,-0.961468 h 2.27256 c 0.218515,0 0.437031,-0.174812 0.437031,-0.43703 -0.08741,-0.174812 -0.262216,-0.349625 -0.480731,-0.349625 z"
   class="st0"
   id="snow"
   inkscape:connector-curvature="0"
   style="fill:#ffffff;stroke-width:1" /></svg>